<?xml version="1.0" encoding="UTF-8"?>
<svg xmlns="http://www.w3.org/2000/svg" viewBox="0 0 512 512">
  <defs>
    <linearGradient id="g" x1="0%" y1="0%" x2="100%" y2="100%">
      <stop offset="0%" stop-color="#00E5FF"/>
      <stop offset="100%" stop-color="#7C4DFF"/>
    </linearGradient>
  </defs>
  <circle cx="256" cy="256" r="190" fill="none" stroke="url(#g)" stroke-width="8"/>
  <circle cx="256" cy="256" r="120" fill="none" stroke="url(#g)" stroke-width="6"/>
  <g stroke="url(#g)" stroke-width="4" stroke-linecap="round">
    <line x1="256" y1="66"  x2="256" y2="136"/>
    <line x1="256" y1="376" x2="256" y2="446"/>
    <line x1="66"  y1="256" x2="136" y2="256"/>
    <line x1="376" y1="256" x2="446" y2="256"/>
    <line x1="132" y1="132" x2="182" y2="182"/>
    <line x1="380" y1="132" x2="330" y2="182"/>
    <line x1="132" y1="380" x2="182" y2="330"/>
    <line x1="380" y1="380" x2="330" y2="330"/>
  </g>
  <circle cx="256" cy="256" r="46" fill="url(#g)"/>
  <g fill="url(#g)">
    <circle cx="256" cy="66" r="10"/>
    <circle cx="256" cy="446" r="10"/>
    <circle cx="66" cy="256" r="10"/>
    <circle cx="446" cy="256" r="10"/>
    <circle cx="132" cy="132" r="8"/>
    <circle cx="380" cy="132" r="8"/>
    <circle cx="132" cy="380" r="8"/>
    <circle cx="380" cy="380" r="8"/>
  </g>
</svg>
